PathFileType	4	(X/Y/Z)	pose_F01_0-92.trc
DataRate	CameraRate	NumFrames	NumMarkers	Units	OrigDataRate	OrigDataStartFrame	OrigNumFrames
30	30	6	21	m	30	69	92
Frame#	Time	CHip			RHip			RKnee			RAnkle			RBigToe			RSmallToe			RHeel			LHip			LKnee			LAnkle			LBigToe			LSmallToe			LHeel			Neck			Nose			RShoulder			RElbow			RWrist			LShoulder			LElbow			LWrist			
		X1	Y1	Z1	X2	Y2	Z2	X3	Y3	Z3	X4	Y4	Z4	X5	Y5	Z5	X6	Y6	Z6	X7	Y7	Z7	X8	Y8	Z8	X9	Y9	Z9	X10	Y10	Z10	X11	Y11	Z11	X12	Y12	Z12	X13	Y13	Z13	X14	Y14	Z14	X15	Y15	Z15	X16	Y16	Z16	X17	Y17	Z17	X18	Y18	Z18	X19	Y19	Z19	X20	Y20	Z20	X21	Y21	Z21	
69	2.3	-0.13547080834261502	1.833471166701144	-0.7243518537847735	-0.15417905228801715	1.8300410336456094	-0.6635106431015527	-0.166550753824574	1.6945214301706513	-0.6304552930717462	-0.1655219262499983	1.5692540903763266	-0.5863746007447342	-0.20957813756045596	1.5343066451809007	-0.5723137544378647	-0.2039446220307762	1.5392326288244342	-0.5485569007369788	-0.15798854694276093	1.5567250220074438	-0.5837886187409879	-0.11503530176436345	1.8353504499915532	-0.7935089862247645	-0.11886083806561933	1.6966708277864482	-0.7591835359224354	-0.21905274459220392	1.4936823029899684	-1.1301416514545741	-0.26017570101337445	1.4707134638871973	-1.0648471783776037	-0.23995474331236055	1.4731706257730166	-1.0661558433355824	-0.21260169305697732	1.4831509571354657	-1.1433564580953495	-0.12082070020748689	1.9916962912801468	-0.7496668845079949	-0.16633207311834677	2.04563599186232	-0.7595389552016424	-0.1447373060169389	1.9857661636763697	-0.6763522774141223	-0.16295465251332006	1.8978935826178096	-0.6402755586609852	-0.1870793797139225	1.828587772948223	-0.628312769350954	-0.09500598457447365	2.000994509092719	-0.834225283594079	-0.9726332886371333	1.8507410656713175	-0.007714399100225582	-0.16305321511665125	1.9910711253497841	-0.779651913291824
70	2.3333333333333335	-0.13866038955320076	1.8302642664279913	-0.7127514151181988	-0.1599464064555622	1.8283027230614792	-0.6529494424156136	-0.16574110189668714	1.6944189555137832	-0.6270702070359006	-0.16755271304854402	1.569094704527259	-0.5842410538920636	-0.20803428539755156	1.5348116696819525	-0.5735224391382119	-0.20240947797675476	1.539577481569896	-0.5497448806060263	-0.16080483245131705	1.5554055175860044	-0.5850012818970718	-0.1192800224501624	1.832219627927916	-0.7732758559027062	-0.1199992419181854	1.699230135074916	-0.7542982648048264	-0.21979707570138243	1.4935061412328243	-1.1320525040837823	-0.25783034195905147	1.4689826519060527	-1.06735454004229	-0.23531432688142118	1.47093187473746	-1.072088389541951	-0.21331660118526374	1.4803807324175684	-1.1445216006188983	-0.12237736941642495	1.99096827935928	-0.7441702423928297	-0.1708329264525049	2.0433614523151262	-0.7544900239349015	-0.14669228988256108	1.984562435593566	-0.6622458795613313	-0.16662242806747557	1.9005194752704724	-0.6241562074459495	-0.1869634376589092	1.8260866382922716	-0.6279377928300479	-0.0988527836256965	1.9968879932282544	-0.8260639625632958	-1.0205512342891676	1.844487872080312	0.05915173673579019	-0.16322241400124554	1.9838423196500634	-0.7788460811232981
71	2.3666666666666667	-0.14204236580692664	1.8297832852707387	-0.7046516658616747	-0.16143045104225656	1.8283347721400394	-0.6386700261205459	-0.16409667754997478	1.6930426401221155	-0.6117008835083398	-0.16790229422897496	1.5676892405054803	-0.583495191850211	-0.20984131695030725	1.5329436475503586	-0.5716797957010435	-0.20415147353854693	1.5377382751141153	-0.5479506329649934	-0.160966947277863	1.5526828078591737	-0.5845466751456087	-0.12218874466797829	1.8303279471954674	-0.761952691032167	-0.12361435050229509	1.6980206622424228	-0.7464860636180246	-0.21982268804188154	1.492024305043602	-1.1323428473735957	-0.25797529086182314	1.470250215197022	-1.0682302625384097	-0.23771107222180818	1.4727205045861935	-1.069546963646889	-0.21329338020287075	1.47881581731726	-1.1448176836089976	-0.1258539977062637	1.9931829010714557	-0.7362720194701647	-0.16975967321401042	2.0426469286346274	-0.7397191382042431	-0.14883176431166184	1.9889019607789338	-0.651283751023948	-0.16763487148267098	1.9072112667169276	-0.6192234069987687	-0.1900752326019774	1.8327220269523217	-0.620879655183901	-0.10294661135426017	2.001106713901824	-0.8191309324266861	-1.0491085935274709	1.8431686667576754	0.10342815862910743	-0.17364103091927385	1.9543450469664385	-0.7682528141922753
72	2.4	-0.14233416586139047	1.8320696942104235	-0.68436899899691	-0.15993123864520467	1.8285486018300854	-0.6235226777411307	-0.16175979588725203	1.6942146106360672	-0.6058780838561486	-0.1676934006223431	1.5663198830341765	-0.5837685781050355	-0.21048029705515853	1.5282645233551688	-0.5749092291929863	-0.2046510041626877	1.5346656033315516	-0.5518947372728628	-0.16035936281887972	1.5517673731165211	-0.5857329715574182	-0.12268629722934504	1.832726743441282	-0.7536057422408716	-0.12747069828064836	1.7014226814448798	-0.7429502652603769	-0.22075162556233294	1.494039548832013	-1.1363522829591428	-0.25798372175009104	1.471552678638725	-1.0691576029641912	-0.23772355939648787	1.4740927267180883	-1.0705964330401443	-0.21415122141218254	1.4798968356066056	-1.147954220035917	-0.12956571873519712	1.9915068360413537	-0.7279311960341697	-0.1727621265691242	2.039875126405668	-0.7292034854178533	-0.1546591879765482	1.986448911103705	-0.6409870899427903	-0.16851511407871103	1.9044633184246424	-0.6013252429736905	-0.1902823421330536	1.839406697254997	-0.5925172321965234	-0.10383087952084903	1.9960489571789302	-0.8096243859821044	-1.0745347155519092	1.8408478792058118	0.14346077196141532	-0.16000072822417521	1.9586740996123977	-0.7705781093491488
73	2.433333333333333	-0.1455214508086075	1.8262989511943195	-0.6723429150317818	-0.16381808485752858	1.8230189565650394	-0.6145502636259494	-0.1641001793113869	1.6927054666702357	-0.6029152415592388	-0.16685094226689867	1.566402861216363	-0.5805919484735685	-0.2098206368250034	1.5299964408253754	-0.5714168415771883	-0.2048585439646518	1.5360756573971983	-0.5514714656659276	-0.1624320748818134	1.55179413130083	-0.5834906700275795	-0.1253961284335129	1.8285064400674627	-0.7385197399794934	-0.13723260710849944	1.7031131345979293	-0.7327824116104478	-0.22907873335650825	1.495335378888824	-1.144305604953287	-0.2643393415670104	1.4715172337850193	-1.0686127486002708	-0.24367719243232366	1.4746803831473476	-1.080436358626863	-0.22111254300901081	1.481228543344769	-1.1639417096665268	-0.1333499255024913	1.9875996715859783	-0.7084750771322837	-0.17568469495673894	2.0373064374204684	-0.718806765838437	-0.15965309519865617	1.9838770174362457	-0.6277593716721969	-0.17629340575405095	1.8973150173566322	-0.5879806264017334	-0.19878390116680386	1.8274439350800609	-0.581340965661141	-0.10551961888484522	1.9905372880559655	-0.7922146076523274	-0.11879110583181096	1.917982359335977	-0.805060574649596	-0.15639296731033103	1.9544264336036699	-0.766918511878133
74	2.466666666666667	-0.14788653990203715	1.8279057654832565	-0.6699953432478779	-0.16824969209329066	1.8245432668681625	-0.6100773273780092	-0.16542214582135867	1.6898588530589058	-0.5971413889269154	-0.16678289785272365	1.5664367493711246	-0.5805574035903569	-0.21160680807889662	1.5279266560176346	-0.569511960242394	-0.20474756693384927	1.5327266267147373	-0.5511685122274337	-0.15957200301290295	1.5530928778889037	-0.5822231419431023	-0.1283055568911076	1.830959623999674	-0.727739525802727	-0.14532040282914283	1.7038104886277872	-0.720379659798634	-0.23938345951521156	1.5026624213612436	-1.1587388395020712	-0.2698929111602815	1.4748726675537394	-1.0899122930332368	-0.24829966062525174	1.4771720151329566	-1.0991816004810266	-0.2307062431045164	1.4877948156962923	-1.1888109894527432	-0.1383986148308449	1.985656205925891	-0.6954963031152147	-0.17725140510241658	2.0346482809013606	-0.7135352298978757	-0.1636535325247046	1.9813236286354547	-0.6113414950389446	-0.1789813926966913	1.8958940717301525	-0.5768219585970682	-0.20210499811185267	1.8251134044726764	-0.5645887565645468	-0.10722625707081364	1.9901477208112872	-0.7870293222707648	-0.10876618238849697	1.9170029043770782	-0.8113679741527257	-1.2119599112679047	1.8643687183556705	0.31939378435165167
